P2
# CREATOR: The GIMP's PNM Filter Version 1.0
8 1016
255
0
0
0
0
0
0
0
0
0
0
0
0
0
0
0
0
0
0
0
0
0
0
0
0
0
0
0
0
0
0
0
0
0
0
0
0
0
0
0
0
0
0
0
0
0
0
0
0
0
0
0
0
0
0
0
0
0
0
0
0
0
0
0
0
0
0
0
0
0
0
0
0
0
0
0
0
0
0
0
0
0
0
0
0
0
0
0
0
0
0
0
0
0
0
0
0
0
0
0
0
0
0
0
0
0
0
0
0
0
0
0
0
0
0
0
0
0
0
0
0
0
0
0
0
0
0
0
0
0
0
0
0
0
0
0
0
0
0
0
0
0
0
0
0
0
0
0
0
0
0
0
0
0
0
0
0
0
0
0
0
0
0
0
0
0
0
0
0
0
0
0
0
0
0
0
0
0
0
0
0
0
0
0
0
0
0
0
0
0
0
0
0
0
0
0
0
0
0
0
0
0
0
0
0
0
0
0
0
0
0
0
0
0
0
0
0
0
0
0
0
0
0
0
0
0
0
0
0
0
0
0
0
0
0
0
0
0
0
0
0
0
0
0
0
0
0
0
0
0
0
0
0
0
0
0
0
0
0
0
0
0
0
0
0
0
0
0
0
0
0
0
0
0
0
0
0
0
0
0
0
0
0
0
0
0
0
0
0
0
0
0
0
0
0
0
0
0
0
0
0
0
0
0
0
0
0
0
0
0
0
0
0
0
0
0
0
0
0
0
0
0
0
0
0
0
0
0
0
0
0
0
0
0
0
0
0
0
0
0
0
0
0
0
0
0
0
0
0
0
0
0
0
0
0
0
0
0
0
0
0
0
0
0
0
0
0
0
0
0
0
0
0
0
0
0
0
0
0
0
0
0
0
0
0
0
0
0
0
0
0
0
0
0
0
0
0
0
0
0
0
0
0
0
0
0
0
0
0
0
0
0
0
0
0
0
0
0
0
0
0
0
0
0
0
0
0
0
0
0
0
0
0
0
0
0
0
0
0
0
0
0
0
0
0
0
0
0
0
0
0
0
0
0
0
0
0
0
0
0
0
0
0
0
0
0
0
0
0
0
0
0
0
0
0
0
0
0
0
0
0
0
0
0
0
0
0
0
0
0
0
0
0
0
0
0
0
0
0
0
0
0
0
0
0
0
0
0
0
0
0
0
0
0
0
0
0
0
0
0
0
0
0
0
0
0
0
0
0
0
0
0
0
0
0
0
0
0
0
0
0
0
0
0
0
0
0
0
0
0
0
0
0
0
0
0
0
0
0
0
0
0
0
0
0
0
0
0
0
0
0
0
0
0
0
0
0
0
0
0
0
0
0
0
0
0
0
0
0
0
0
0
0
0
0
0
0
0
0
0
0
0
0
0
0
0
0
0
0
0
0
0
0
0
0
0
0
0
0
0
0
0
0
0
0
0
0
0
0
0
0
0
0
0
0
0
0
0
0
0
0
0
0
0
0
0
0
0
0
0
0
0
0
0
0
0
0
0
0
0
0
0
0
0
0
0
0
0
0
0
0
0
0
0
0
0
0
0
0
0
0
0
0
0
0
0
0
0
0
0
0
0
0
0
0
0
0
0
0
0
0
0
0
0
0
0
0
0
0
0
0
0
0
0
0
0
0
0
0
0
0
0
0
0
0
0
0
0
0
0
0
0
0
0
0
0
0
0
0
0
0
0
0
0
0
0
0
0
0
0
0
0
0
0
0
0
0
0
0
0
0
0
0
0
0
0
0
0
0
0
0
0
0
0
0
0
0
0
0
0
0
0
0
0
0
0
0
0
0
0
0
0
0
0
0
0
0
0
0
0
0
0
0
0
0
0
0
0
0
0
0
0
0
0
0
0
0
0
0
0
0
0
0
0
0
0
0
0
0
0
0
0
0
0
0
0
0
0
0
0
0
0
0
0
0
0
0
0
0
0
0
0
0
0
0
0
0
0
0
0
0
0
0
0
0
0
0
0
0
0
0
0
0
0
0
0
0
0
0
0
0
0
0
0
0
0
0
0
0
0
0
0
0
0
0
0
0
0
0
0
0
0
0
0
0
0
0
0
0
0
0
0
0
0
0
0
0
0
0
0
0
0
0
0
0
0
0
0
0
0
0
0
0
0
0
0
0
0
0
0
0
0
0
0
0
0
0
0
0
0
0
0
0
0
0
0
0
0
0
0
0
0
0
0
0
0
0
0
0
0
0
0
0
0
0
0
0
0
0
0
0
0
0
0
0
0
0
0
0
0
0
0
0
0
0
0
0
0
0
0
0
0
0
0
0
0
0
0
0
0
0
0
0
0
0
0
0
0
0
0
0
0
0
0
0
0
0
0
0
0
0
0
0
0
0
0
0
0
0
0
0
0
0
0
0
0
0
0
0
0
0
0
0
0
0
0
0
0
0
0
0
0
0
0
0
0
0
0
0
0
0
0
0
0
0
0
0
0
0
0
0
0
0
0
0
0
0
0
0
0
0
0
0
0
0
0
0
0
0
0
0
0
0
0
0
0
0
0
0
0
0
0
0
0
0
0
0
0
0
0
0
0
0
0
0
0
0
0
0
0
0
0
0
0
0
0
0
0
0
0
0
0
0
0
0
0
0
0
0
0
0
0
0
0
0
0
0
0
0
0
0
0
0
0
0
0
0
0
0
0
0
0
0
0
0
0
0
0
0
0
0
0
0
0
0
0
0
0
0
0
0
0
0
0
0
0
0
0
0
0
0
0
0
0
0
0
0
0
0
0
0
0
0
0
0
0
0
0
0
0
0
0
0
0
0
0
0
0
0
0
0
0
0
0
0
0
0
0
0
0
0
0
0
0
0
0
0
0
0
0
0
0
0
0
0
0
0
0
0
0
0
0
0
0
0
0
0
0
0
0
0
0
0
0
0
0
0
0
0
0
0
0
0
0
0
0
0
0
0
0
0
0
0
0
0
0
0
0
0
0
0
0
0
0
0
0
0
0
0
0
0
0
0
0
0
0
0
0
0
0
0
0
0
0
0
0
0
0
0
0
0
0
0
0
0
0
0
0
0
0
0
0
0
0
0
0
0
0
0
0
0
0
0
0
0
0
0
0
0
0
0
0
0
0
0
0
0
0
0
0
0
0
0
0
0
0
0
0
0
0
0
0
0
0
0
0
0
0
0
0
0
0
0
0
0
0
0
0
0
0
0
0
0
0
0
0
0
0
0
0
0
0
0
0
0
0
0
0
0
0
0
0
0
0
0
0
0
0
0
0
0
0
0
0
0
0
0
0
0
0
0
0
0
0
0
0
0
0
0
0
0
0
0
0
0
0
0
0
0
0
0
0
0
0
0
0
0
0
0
0
0
0
0
0
0
0
0
0
0
0
0
0
0
0
0
0
0
0
0
0
0
0
0
0
0
0
0
0
0
0
0
0
0
0
0
0
0
0
0
0
0
0
0
0
0
0
0
0
0
0
0
0
0
0
0
0
0
0
0
0
0
0
0
0
0
0
0
0
0
0
0
0
0
0
0
0
0
0
0
0
0
0
0
0
0
0
0
0
0
0
0
0
0
0
0
0
0
0
0
0
0
0
0
0
0
0
0
0
0
0
0
0
0
0
0
0
0
0
0
0
0
0
0
0
0
0
0
0
0
0
0
0
0
0
0
0
0
0
0
0
0
0
0
0
0
0
0
0
0
0
0
0
0
0
0
0
0
0
0
0
0
0
0
0
0
0
0
0
0
0
0
0
0
0
0
0
0
0
0
0
0
0
0
0
0
0
0
0
0
0
0
0
0
0
0
0
0
0
0
0
0
0
0
0
0
0
0
0
0
0
0
0
0
0
0
0
0
0
0
0
0
0
0
0
0
0
0
0
0
0
0
0
0
0
0
0
0
0
0
0
0
0
0
0
0
0
0
0
0
0
0
0
0
0
0
0
0
0
0
0
0
0
0
0
0
0
0
0
0
0
0
0
0
0
0
0
0
0
0
0
0
0
0
0
0
0
0
0
0
0
0
0
0
0
0
0
0
0
0
0
0
0
0
0
0
0
0
0
0
0
0
0
0
0
0
0
0
0
0
0
0
0
0
0
0
0
0
0
0
0
0
0
0
0
0
0
0
0
0
0
0
0
0
0
0
0
0
0
0
0
0
0
0
0
0
0
0
0
0
0
0
0
0
0
0
0
0
0
0
0
0
0
0
0
0
0
0
0
0
0
0
0
0
0
0
0
0
0
0
0
0
0
0
0
0
0
0
0
0
0
0
0
0
0
0
0
0
0
0
0
0
0
0
0
0
0
0
0
0
0
0
0
0
0
0
0
0
0
0
0
0
0
0
0
0
0
0
0
0
0
0
0
0
0
0
0
0
0
0
0
0
0
0
0
0
0
0
0
0
0
0
0
0
0
0
0
0
0
0
0
0
0
0
0
0
0
0
0
0
0
0
0
0
0
0
0
0
0
0
0
0
0
0
0
0
0
0
0
0
0
0
0
0
0
0
0
0
0
0
0
0
0
0
0
0
0
0
0
0
0
0
0
0
0
0
0
0
0
0
0
0
0
0
0
0
0
0
0
0
0
0
0
0
0
0
0
0
0
0
0
0
0
0
0
0
0
0
0
0
0
0
0
0
0
0
0
0
0
0
0
0
0
0
0
0
0
0
0
0
0
0
0
0
0
0
0
0
0
0
0
0
0
0
0
0
0
0
0
0
0
0
0
0
0
0
0
0
0
0
0
0
0
0
0
0
0
0
0
0
0
0
0
0
0
0
0
0
0
0
0
0
0
0
0
0
0
0
0
0
0
0
0
0
0
0
0
0
0
0
0
0
0
0
0
0
0
0
0
0
0
255
0
255
255
255
255
255
0
255
0
255
255
255
255
255
0
0
0
0
0
0
0
0
0
0
0
0
0
0
0
0
0
0
0
0
0
0
0
0
0
0
0
0
0
0
0
0
0
0
0
0
0
0
0
0
0
0
0
0
0
0
255
255
0
0
0
0
0
0
255
255
0
0
0
0
0
0
0
0
0
0
0
0
0
0
0
0
0
0
0
0
0
0
255
255
0
0
0
0
0
0
255
255
0
0
0
0
0
0
0
0
0
0
0
255
0
255
0
0
0
255
255
255
255
255
255
255
0
255
255
255
255
255
255
255
0
0
0
255
0
255
0
0
0
255
255
255
255
255
255
255
0
255
255
255
255
255
255
255
0
0
0
255
0
255
0
0
0
0
0
0
0
0
0
0
0
0
0
255
0
255
0
0
0
0
255
0
255
255
255
0
0
0
255
0
255
0
255
0
0
255
255
0
255
255
255
255
0
0
255
0
255
0
255
0
0
0
255
255
255
0
255
0
0
0
0
255
0
255
0
0
0
0
0
0
0
0
0
0
0
255
0
0
0
255
255
255
0
255
255
0
0
255
0
255
0
0
255
255
0
255
0
255
0
255
255
255
255
255
255
255
0
255
0
255
255
255
0
0
0
255
0
255
0
255
255
0
0
255
255
255
0
0
255
0
0
0
0
0
0
0
0
0
0
0
255
255
0
0
0
0
0
255
255
255
255
0
255
0
0
255
0
0
255
255
0
255
0
255
0
0
255
255
0
255
0
255
255
255
255
0
255
0
0
0
255
255
0
0
0
0
0
0
0
255
0
0
0
0
0
0
0
0
0
0
0
0
0
0
0
0
0
0
0
0
0
0
0
0
0
0
0
0
0
0
0
0
0
0
0
0
0
0
0
0
0
255
0
0
0
0
0
0
0
255
255
255
0
0
0
0
0
0
255
255
0
0
0
0
0
0
0
0
0
0
0
0
0
0
0
0
0
0
0
255
255
255
0
0
0
0
255
255
255
255
255
0
0
0
255
0
0
0
255
0
0
255
0
0
0
0
0
255
0
0
0
0
0
0
0
0
0
0
0
0
0
0
0
0
0
0
0
0
0
0
0
0
0
0
0
0
0
0
0
0
0
0
0
0
0
0
0
0
0
0
0
0
0
0
0
0
0
0
0
0
0
0
0
0
0
255
0
0
0
0
0
255
0
0
255
0
0
0
255
0
0
0
255
255
255
255
255
0
0
0
0
255
255
255
0
0
0
0
0
0
0
0
0
0
0
0
0
0
255
0
0
0
0
0
255
0
255
0
255
0
0
0
0
255
255
255
0
0
0
0
255
255
255
255
255
0
0
0
0
255
255
255
0
0
0
0
255
0
255
0
255
0
0
0
0
0
255
0
0
0
0
0
0
0
0
0
0
0
0
0
0
0
0
0
0
0
0
0
0
0
255
0
0
0
0
0
0
0
255
0
0
0
0
0
255
255
255
255
255
0
0
0
255
255
255
255
255
0
0
0
0
0
255
0
0
0
0
0
0
0
255
0
0
0
0
0
0
0
0
0
0
0
0
0
0
0
0
0
0
0
255
0
0
0
0
0
0
0
255
0
0
0
0
0
0
0
255
255
0
0
0
0
0
0
0
255
0
0
0
0
0
0
0
0
0
0
0
0
0
0
0
0
0
0
0
0
0
0
0
0
0
0
0
0
0
0
0
0
0
0
0
0
0
0
0
0
0
0
255
0
0
0
0
0
0
0
255
0
0
0
0
0
0
0
255
0
0
0
0
0
0
0
255
0
0
0
0
0
0
0
255
0
0
0
0
0
0
0
255
0
0
0
0
0
0
0
0
0
0
0
0
0
0
0
0
0
0
0
0
0
0
0
0
0
0
0
0
0
0
0
0
0
0
0
0
255
0
0
0
0
0
0
0
255
0
0
0
0
0
0
0
0
0
0
0
0
0
0
0
0
0
0
0
0
0
0
0
0
0
0
0
0
0
0
0
255
0
0
0
0
0
0
0
255
255
0
0
0
0
0
0
0
255
255
0
0
0
0
0
0
0
255
255
0
0
0
0
0
0
0
255
255
0
0
0
0
0
0
0
255
255
0
0
0
0
0
0
0
255
255
0
0
0
0
0
0
0
0
0
0
255
255
255
255
255
0
0
255
255
255
255
255
255
255
0
255
0
0
0
0
0
255
0
255
0
0
0
0
0
255
0
255
0
0
0
0
0
255
0
255
255
255
255
255
255
255
0
0
255
255
255
255
255
0
0
0
0
0
0
0
0
0
0
0
0
0
0
0
0
0
0
0
0
0
0
255
0
0
0
255
0
0
0
255
255
0
0
255
255
255
255
255
255
255
0
255
255
255
255
255
255
255
0
255
0
0
0
0
0
0
0
0
0
0
0
0
0
0
0
0
0
0
0
0
0
0
0
255
0
0
0
0
255
0
0
255
255
0
0
0
255
255
0
255
255
255
0
0
0
255
0
255
0
255
0
0
0
255
0
255
0
0
255
0
0
255
0
255
0
0
255
255
255
255
0
255
0
0
0
255
255
0
0
0
0
0
0
0
0
0
0
0
255
0
0
0
255
0
0
255
255
0
0
0
255
255
0
255
0
0
255
0
0
255
0
255
0
0
255
0
0
255
0
255
0
0
255
0
0
255
0
255
255
255
255
255
255
255
0
0
255
255
0
255
255
0
0
0
0
0
0
0
0
0
0
0
0
255
0
0
0
0
0
0
0
255
255
0
0
0
0
0
0
255
255
255
0
0
0
0
0
255
0
255
255
0
0
0
0
255
0
0
255
255
0
255
255
255
255
255
255
255
0
255
255
255
255
255
255
255
0
0
0
0
0
0
0
0
0
255
0
0
255
255
255
255
0
255
0
0
255
255
255
255
0
255
0
0
255
0
0
255
0
255
0
0
255
0
0
255
0
255
0
0
255
0
0
255
0
255
255
255
255
0
0
255
0
0
255
255
0
0
0
255
0
0
0
0
0
0
0
0
0
0
255
255
255
255
255
0
0
255
255
255
255
255
255
255
0
255
0
0
255
0
0
255
0
255
0
0
255
0
0
255
0
255
0
0
255
0
0
255
0
255
255
255
255
0
255
255
0
0
255
255
0
0
255
0
0
0
0
0
0
0
0
0
0
0
0
0
0
0
0
255
0
255
255
0
0
0
0
255
0
255
255
255
0
0
0
255
0
0
0
255
255
0
0
255
0
0
0
0
255
255
0
255
0
0
0
0
0
255
255
255
0
0
0
0
0
0
255
255
0
0
0
0
0
0
0
0
0
0
255
255
0
255
255
0
0
255
255
255
255
255
255
255
0
255
0
0
255
0
0
255
0
255
0
0
255
0
0
255
0
255
0
0
255
0
0
255
0
255
255
255
255
255
255
255
0
0
255
255
0
255
255
0
0
0
0
0
0
0
0
0
0
0
255
0
0
255
255
0
0
255
255
0
255
255
255
255
0
255
0
0
255
0
0
255
0
255
0
0
255
0
0
255
0
255
0
0
255
0
0
255
0
255
255
255
255
255
255
255
0
0
255
255
255
255
255
0
0
0
0
0
0
0
0
0
0
0
0
0
0
0
0
0
0
0
0
0
0
0
0
0
0
0
255
0
0
0
255
0
0
0
255
0
0
0
255
0
0
0
0
0
0
0
0
0
0
0
0
0
0
0
0
0
0
0
0
0
0
0
0
0
0
0
0
0
0
0
0
0
0
0
0
0
0
0
0
0
0
0
0
0
0
0
0
0
0
255
255
0
0
0
255
0
0
0
255
0
0
0
255
0
0
0
0
0
0
0
0
0
0
0
0
0
0
0
0
0
0
0
0
0
0
0
0
0
0
0
0
0
0
0
0
0
0
0
0
0
0
0
0
0
0
0
0
0
255
0
0
0
0
0
0
255
255
255
0
0
0
0
255
255
0
255
255
0
0
0
255
0
0
0
255
0
0
0
255
0
0
0
255
0
0
0
0
0
0
0
0
0
0
0
0
0
0
0
0
0
0
0
0
0
0
0
0
0
0
0
0
255
0
255
0
0
0
0
0
255
0
255
0
0
0
0
0
255
0
255
0
0
0
0
0
255
0
255
0
0
0
0
0
255
0
255
0
0
0
0
0
255
0
255
0
0
0
0
0
0
0
0
0
0
0
0
0
0
0
0
0
0
0
0
255
0
0
0
255
0
0
0
255
0
0
0
255
0
0
0
255
255
0
255
255
0
0
0
0
255
255
255
0
0
0
0
0
0
255
0
0
0
0
0
0
0
0
0
0
0
0
0
0
0
0
0
0
0
0
0
0
0
0
0
255
0
0
0
0
0
0
0
255
255
0
255
0
255
0
0
0
255
0
255
0
255
255
0
0
255
0
0
0
0
255
255
0
255
0
0
0
0
0
255
255
255
0
0
0
0
0
0
255
0
0
0
0
0
0
0
0
0
0
0
255
255
255
255
255
0
0
255
0
0
0
0
0
255
0
255
0
255
255
0
0
255
0
255
255
0
0
255
0
255
0
255
255
255
255
255
0
255
0
255
255
0
0
0
0
255
0
0
255
255
255
255
255
0
0
0
0
0
0
0
0
0
0
255
255
255
255
255
0
0
0
255
255
255
255
255
255
0
0
0
0
255
0
0
255
255
0
0
0
255
0
0
0
255
0
0
0
255
0
0
255
255
0
255
255
255
255
255
255
0
0
255
255
255
255
255
0
0
0
0
0
0
0
0
0
0
0
255
255
255
255
255
255
255
0
255
255
255
255
255
255
255
0
255
0
0
255
0
0
255
0
255
0
0
255
0
0
255
0
255
0
0
255
0
0
255
0
255
255
255
255
255
255
255
0
0
255
255
0
255
255
0
0
0
0
0
0
0
0
0
0
0
255
255
255
255
255
0
0
255
255
255
255
255
255
255
0
255
0
0
0
0
0
255
0
255
0
0
0
0
0
255
0
255
0
0
0
0
0
255
0
255
255
0
0
255
255
255
0
0
255
0
0
255
255
0
0
0
0
0
0
0
0
0
0
255
255
255
255
255
255
255
0
255
255
255
255
255
255
255
0
255
0
0
0
0
0
255
0
255
0
0
0
0
0
255
0
255
255
0
0
0
255
255
0
0
255
255
255
255
255
0
0
0
0
255
255
255
0
0
0
0
0
0
0
0
0
0
0
255
255
255
255
255
255
255
0
255
255
255
255
255
255
255
0
255
0
0
255
0
0
255
0
255
0
0
255
0
0
255
0
255
0
0
255
0
0
255
0
255
0
0
255
0
0
255
0
255
0
0
0
0
0
255
0
0
0
0
0
0
0
0
0
255
255
255
255
255
255
255
0
255
255
255
255
255
255
255
0
0
0
0
255
0
0
255
0
0
0
0
255
0
0
255
0
0
0
0
255
0
0
255
0
0
0
0
255
0
0
255
0
0
0
0
0
0
0
255
0
0
0
0
0
0
0
0
0
0
255
255
255
255
255
0
0
255
255
255
255
255
255
255
0
255
0
0
0
0
0
255
0
255
0
0
0
0
0
255
0
255
0
0
255
0
0
255
0
255
255
255
255
0
255
255
0
255
255
255
255
0
255
0
0
0
0
0
0
0
0
0
0
255
255
255
255
255
255
255
0
255
255
255
255
255
255
255
0
0
0
0
255
0
0
0
0
0
0
0
255
0
0
0
0
0
0
0
255
0
0
0
0
255
255
255
255
255
255
255
0
255
255
255
255
255
255
255
0
0
0
0
0
0
0
0
0
0
0
0
0
0
0
0
0
255
0
0
0
0
0
255
0
255
255
255
255
255
255
255
0
255
255
255
255
255
255
255
0
255
0
0
0
0
0
255
0
0
0
0
0
0
0
0
0
0
0
0
0
0
0
0
0
0
0
0
0
0
0
0
0
0
255
255
0
0
0
0
0
255
255
255
0
0
0
0
0
255
0
0
0
0
0
0
0
255
0
0
0
0
0
255
0
255
0
0
0
0
0
255
0
255
255
255
255
255
255
255
0
0
255
255
255
255
255
255
0
0
0
0
0
0
0
0
0
255
255
255
255
255
255
255
0
255
255
255
255
255
255
255
0
0
0
0
255
0
0
0
0
0
0
255
255
255
0
0
0
0
255
255
0
255
255
0
0
255
255
0
0
0
255
255
0
255
0
0
0
0
0
255
0
0
0
0
0
0
0
0
0
255
255
255
255
255
255
255
0
255
255
255
255
255
255
255
0
255
0
0
0
0
0
0
0
255
0
0
0
0
0
0
0
255
0
0
0
0
0
0
0
255
0
0
0
0
0
0
0
255
0
0
0
0
0
0
0
0
0
0
0
0
0
0
0
255
255
255
255
255
255
255
0
255
255
255
255
255
255
255
0
0
0
0
0
255
255
0
0
0
0
0
255
255
0
0
0
0
0
0
0
255
255
0
0
255
255
255
255
255
255
255
0
255
255
255
255
255
255
255
0
0
0
0
0
0
0
0
0
255
255
255
255
255
255
255
0
255
255
255
255
255
255
255
0
0
0
0
0
255
255
0
0
0
0
0
255
255
0
0
0
0
0
255
255
0
0
0
0
255
255
255
255
255
255
255
0
255
255
255
255
255
255
255
0
0
0
0
0
0
0
0
0
0
255
255
255
255
255
0
0
255
255
255
255
255
255
255
0
255
0
0
0
0
0
255
0
255
0
0
0
0
0
255
0
255
0
0
0
0
0
255
0
255
255
255
255
255
255
255
0
0
255
255
255
255
255
0
0
0
0
0
0
0
0
0
0
255
255
255
255
255
255
255
0
255
255
255
255
255
255
255
0
0
0
0
255
0
0
255
0
0
0
0
255
0
0
255
0
0
0
0
255
0
0
255
0
0
0
0
255
255
255
255
0
0
0
0
0
255
255
0
0
0
0
0
0
0
0
0
0
0
255
255
255
255
255
0
0
255
255
255
255
255
255
255
0
255
0
0
0
0
0
255
0
255
0
0
0
0
0
255
0
255
0
0
0
0
0
255
255
255
255
255
255
255
255
255
255
0
255
255
255
255
255
0
0
0
0
0
0
0
0
0
0
255
255
255
255
255
255
255
0
255
255
255
255
255
255
255
0
0
0
0
255
0
0
255
0
0
0
0
255
0
0
255
0
0
0
0
255
0
0
255
0
255
255
255
255
255
255
255
0
255
255
255
0
255
255
0
0
0
0
0
0
0
0
0
0
0
255
0
0
0
255
0
0
255
255
0
0
255
255
255
0
255
0
0
255
255
0
255
0
255
0
255
255
0
0
255
0
255
255
255
0
0
255
255
0
0
255
0
0
0
255
0
0
0
0
0
0
0
0
0
0
0
0
0
0
0
0
0
0
0
0
0
0
0
0
255
0
0
0
0
0
0
0
255
0
255
255
255
255
255
255
255
0
255
255
255
255
255
255
255
0
0
0
0
0
0
0
255
0
0
0
0
0
0
0
255
0
0
0
0
0
0
0
0
0
0
0
0
0
0
0
0
0
0
255
255
255
255
255
255
0
255
255
255
255
255
255
255
0
255
0
0
0
0
0
0
0
255
0
0
0
0
0
0
0
255
0
0
0
0
0
0
0
255
255
255
255
255
255
255
0
0
255
255
255
255
255
255
0
0
0
0
0
0
0
0
0
0
0
255
255
255
255
255
0
0
255
255
255
255
255
255
0
255
255
0
0
0
0
0
0
255
0
0
0
0
0
0
0
255
255
0
0
0
0
0
0
0
255
255
255
255
255
255
0
0
0
255
255
255
255
255
0
0
0
0
0
0
0
0
0
255
255
255
255
255
255
255
0
255
255
255
255
255
255
255
0
0
255
255
0
0
0
0
0
0
0
255
255
0
0
0
0
0
255
255
0
0
0
0
0
255
255
255
255
255
255
255
0
255
255
255
255
255
255
255
0
0
0
0
0
0
0
0
0
255
255
0
0
0
255
255
0
255
255
255
0
255
255
255
0
0
0
255
255
255
0
0
0
0
0
0
255
0
0
0
0
0
0
255
255
255
0
0
0
255
255
255
0
255
255
255
0
255
255
0
0
0
255
255
0
0
0
0
0
0
0
0
0
0
0
0
0
0
255
255
0
0
0
0
0
255
255
255
0
0
0
0
255
255
0
0
0
255
255
255
255
0
0
0
0
255
255
255
255
0
0
0
0
0
0
0
255
255
0
0
0
0
0
0
0
255
255
255
0
0
0
0
0
0
255
255
0
255
255
0
0
0
0
255
0
255
255
255
0
0
0
255
0
255
0
255
255
0
0
255
0
255
0
0
255
255
0
255
0
255
0
0
0
255
255
255
0
255
0
0
0
0
255
255
0
255
0
0
0
0
0
255
0
0
0
0
0
0
0
0
0
0
0
0
0
0
0
0
0
0
0
0
0
0
0
0
0
255
255
255
255
255
255
255
0
255
255
255
255
255
255
255
0
255
0
0
0
0
0
255
0
255
0
0
0
0
0
255
0
0
0
0
0
0
0
0
0
0
0
0
0
0
0
0
0
0
0
0
0
0
0
255
0
0
0
0
0
0
255
255
0
0
0
0
0
255
255
0
0
0
0
0
255
255
0
0
0
0
0
255
255
0
0
0
0
0
255
255
0
0
0
0
0
255
255
0
0
0
0
0
0
255
0
0
0
0
0
0
0
0
0
0
0
0
0
0
0
0
0
0
0
0
0
0
0
255
0
0
0
0
0
255
0
255
0
0
0
0
0
255
0
255
255
255
255
255
255
255
0
255
255
255
255
255
255
255
0
0
0
0
0
0
0
0
0
0
0
0
0
0
0
0
0
0
0
0
255
0
0
0
0
0
0
0
255
255
0
0
0
0
0
0
0
255
255
0
0
0
0
0
0
0
255
0
0
0
0
0
0
255
255
0
0
0
0
0
255
255
0
0
0
0
0
0
255
0
0
0
0
0
0
0
0
0
0
0
255
0
0
0
0
0
0
0
255
0
0
0
0
0
0
0
255
0
0
0
0
0
0
0
255
0
0
0
0
0
0
0
255
0
0
0
0
0
0
0
255
0
0
0
0
0
0
0
255
0
0
0
0
0
0
0
255
0
0
0
0
0
0
0
0
0
0
0
0
0
0
0
0
0
0
0
0
0
0
0
0
0
0
0
0
0
255
255
0
0
0
0
0
255
255
255
0
0
0
0
0
255
0
0
0
0
0
0
0
0
0
0
0
0
0
0
0
0
0
0
0
0
0
0
0
0
0
0
0
0
255
0
0
0
0
0
0
255
255
255
0
255
0
0
0
255
0
255
0
255
0
0
0
255
0
255
0
255
0
0
0
255
0
255
0
255
0
0
0
255
255
255
255
255
0
0
0
255
255
255
255
0
0
0
0
0
0
0
0
0
0
0
0
255
255
255
255
255
255
255
0
255
255
255
255
255
255
255
0
0
255
0
0
255
0
0
0
255
0
0
0
255
0
0
0
255
0
0
0
255
0
0
0
255
255
255
255
255
0
0
0
0
255
255
255
0
0
0
0
0
0
0
0
0
0
0
0
0
255
255
255
0
0
0
0
255
255
255
255
255
0
0
0
255
0
0
0
255
0
0
0
255
0
0
0
255
0
0
0
255
0
0
0
255
0
0
0
255
0
0
255
255
0
0
0
255
0
0
255
0
0
0
0
0
0
0
0
0
0
0
0
0
255
255
255
0
0
0
0
255
255
255
255
255
0
0
0
255
0
0
0
255
0
0
0
255
0
0
0
255
0
0
0
0
255
0
0
255
0
0
0
255
255
255
255
255
255
255
0
255
255
255
255
255
255
255
0
0
0
0
0
0
0
0
0
0
255
255
255
0
0
0
0
255
255
255
255
255
0
0
0
255
0
255
0
255
0
0
0
255
0
255
0
255
0
0
0
255
0
255
0
255
0
0
0
255
0
255
255
255
0
0
0
255
0
255
255
0
0
0
0
0
0
0
0
0
0
0
0
0
0
0
0
0
0
0
0
0
0
0
0
255
0
0
0
255
255
255
255
255
255
0
0
255
255
255
255
255
255
255
0
0
0
0
0
255
0
255
0
0
0
0
0
255
0
255
0
0
0
0
0
0
0
255
0
0
0
0
0
0
0
0
0
0
0
255
255
0
0
0
255
0
255
255
255
255
0
0
255
0
255
0
0
255
0
0
255
0
255
0
0
255
0
0
255
0
0
255
0
255
0
0
255
255
255
255
255
255
0
0
0
255
255
255
255
255
0
0
0
0
0
0
0
0
0
0
0
255
255
255
255
255
255
255
0
255
255
255
255
255
255
255
0
0
0
0
0
255
0
0
0
0
0
0
0
255
0
0
0
0
0
0
0
255
0
0
0
255
255
255
255
255
0
0
0
255
255
255
255
0
0
0
0
0
0
0
0
0
0
0
0
0
0
0
0
0
0
0
0
0
0
0
0
0
0
0
0
255
0
0
0
255
0
0
0
255
255
255
255
255
0
255
0
255
255
255
255
255
0
255
0
255
0
0
0
0
0
0
0
0
0
0
0
0
0
0
0
0
0
0
0
0
0
0
255
0
0
0
0
0
0
0
255
0
0
0
0
0
0
0
255
0
0
0
0
255
0
0
255
255
255
255
255
255
0
255
0
255
255
255
255
255
0
255
0
0
0
0
0
0
0
0
0
0
0
0
0
0
0
0
0
0
0
0
0
0
0
0
0
255
255
255
255
255
255
255
0
255
255
255
255
255
255
255
0
0
0
255
0
0
0
0
0
0
255
255
255
0
0
0
0
255
255
0
255
255
0
0
0
255
0
0
0
255
0
0
0
0
0
0
0
0
0
0
0
0
0
0
0
0
0
0
0
0
0
0
0
0
0
0
0
0
0
0
0
0
0
0
0
255
0
0
0
0
0
255
0
255
255
255
255
255
255
255
0
255
255
255
255
255
255
255
0
255
0
0
0
0
0
0
0
0
0
0
0
0
0
0
0
0
0
0
0
0
0
0
0
255
255
255
255
255
0
0
0
255
255
255
255
255
0
0
0
0
0
0
255
0
0
0
0
0
0
255
255
0
0
0
0
0
0
0
255
255
0
0
0
255
255
255
255
255
0
0
0
255
255
255
255
0
0
0
0
0
0
0
0
0
0
0
0
255
255
255
255
255
0
0
0
255
255
255
255
255
0
0
0
0
0
0
0
255
0
0
0
0
0
0
0
255
0
0
0
0
0
0
0
255
0
0
0
255
255
255
255
255
0
0
0
255
255
255
255
0
0
0
0
0
0
0
0
0
0
0
0
0
255
255
255
0
0
0
0
255
255
255
255
255
0
0
0
255
0
0
0
255
0
0
0
255
0
0
0
255
0
0
0
255
0
0
0
255
0
0
0
255
255
255
255
255
0
0
0
0
255
255
255
0
0
0
0
0
0
0
0
0
0
0
255
255
255
255
255
255
0
0
255
255
255
255
255
255
0
0
0
0
255
0
0
255
0
0
0
255
0
0
0
255
0
0
0
255
0
0
0
255
0
0
0
255
255
255
255
255
0
0
0
0
255
255
255
0
0
0
0
0
0
0
0
0
0
0
0
0
255
255
255
0
0
0
0
255
255
255
255
255
0
0
0
255
0
0
0
255
0
0
0
255
0
0
0
255
0
0
0
0
255
0
0
255
0
0
255
255
255
255
255
255
0
0
255
255
255
255
255
255
0
0
0
0
0
0
0
0
0
0
0
0
0
0
0
0
0
0
0
255
255
255
255
255
0
0
0
255
255
255
255
255
0
0
0
0
0
0
255
0
0
0
0
0
0
0
0
255
0
0
0
0
0
0
0
255
0
0
0
0
0
0
0
255
0
0
0
0
0
0
0
0
0
0
0
255
0
0
255
0
0
0
0
255
0
255
255
255
0
0
0
255
0
255
0
255
0
0
0
255
0
255
0
255
0
0
0
255
0
255
0
255
0
0
0
255
255
255
0
255
0
0
0
0
255
0
0
0
0
0
0
0
0
0
0
0
0
0
0
0
0
0
0
0
0
0
0
0
0
0
0
255
0
0
0
0
255
255
255
255
255
255
0
255
255
255
255
255
255
255
0
255
0
0
0
255
0
0
0
255
0
0
0
255
0
0
0
0
0
0
0
0
0
0
0
0
0
0
0
0
0
0
0
0
255
255
255
255
0
0
0
255
255
255
255
255
0
0
0
255
0
0
0
0
0
0
0
255
0
0
0
0
0
0
0
255
0
0
0
0
0
0
0
255
255
255
255
255
0
0
0
255
255
255
255
255
0
0
0
0
0
0
0
0
0
0
0
0
0
255
255
255
0
0
0
0
255
255
255
255
0
0
0
255
255
0
0
0
0
0
0
255
0
0
0
0
0
0
0
255
255
0
0
0
0
0
0
0
255
255
255
255
0
0
0
0
0
255
255
255
0
0
0
0
0
0
0
0
0
0
0
0
255
255
255
255
0
0
0
255
255
255
255
255
0
0
0
255
255
0
0
0
0
0
0
0
255
255
0
0
0
0
0
255
255
0
0
0
0
0
0
255
255
255
255
255
0
0
0
0
255
255
255
255
0
0
0
0
0
0
0
0
0
0
0
255
0
0
0
255
0
0
0
255
255
0
255
255
0
0
0
0
255
255
255
0
0
0
0
0
0
255
0
0
0
0
0
0
255
255
255
0
0
0
0
255
255
0
255
255
0
0
0
255
0
0
0
255
0
0
0
0
0
0
0
0
0
0
0
0
0
255
255
255
0
0
255
0
255
255
255
255
0
0
255
0
255
0
0
0
0
0
255
0
255
0
0
0
0
0
255
0
0
255
0
0
0
0
255
255
255
255
255
255
0
0
0
255
255
255
255
255
0
0
0
0
0
0
0
0
0
0
0
255
0
0
0
255
0
0
0
255
255
0
0
255
0
0
0
255
255
255
0
255
0
0
0
255
0
255
255
255
0
0
0
255
0
0
255
255
0
0
0
255
0
0
0
255
0
0
0
0
0
0
0
0
0
0
0
0
0
0
0
0
0
0
0
0
0
0
0
0
0
0
0
0
0
0
255
0
0
0
0
0
0
0
255
0
0
0
0
0
255
255
255
255
255
0
0
255
255
255
0
255
255
255
0
255
0
0
0
0
0
255
0
255
0
0
0
0
0
255
0
0
0
0
0
0
0
0
0
0
0
0
0
0
0
0
0
0
0
0
0
0
0
0
0
0
0
0
0
0
0
0
0
255
255
255
0
255
255
255
0
255
255
255
0
255
255
255
0
0
0
0
0
0
0
0
0
0
0
0
0
0
0
0
0
0
0
0
0
0
0
0
0
255
0
0
0
0
0
255
0
255
0
0
0
0
0
255
0
255
255
255
0
255
255
255
0
0
255
255
255
255
255
0
0
0
0
0
255
0
0
0
0
0
0
0
255
0
0
0
0
0
0
0
0
0
0
0
0
0
0
0
0
0
0
0
0
0
0
0
255
0
0
0
0
0
0
0
0
255
0
0
0
0
0
0
0
255
0
0
0
0
0
0
255
255
0
0
0
0
0
255
255
0
0
0
0
0
0
255
0
0
0
0
0
0
0
255
255
0
0
0
0
0
0
0
0
0
0
0
